<svg width="125" height="136" viewBox="0 0 125 136" fill="none" xmlns="http://www.w3.org/2000/svg">
<g filter="url(#filter0_d_2405_218)">
<path d="M72.4088 59.8078L65.0307 66.5013C63.672 65.0037 62.5783 63.5915 61.7496 62.2647C60.9225 60.9053 60.3577 59.5252 60.0553 58.1242C59.7529 56.7232 59.7007 55.2192 59.8988 53.6123C60.1022 52.2179 60.2173 50.95 60.2442 49.8087C60.2711 48.6674 60.1532 47.642 59.8904 46.7324C59.6276 45.8229 59.172 45.0107 58.5236 44.2959C57.7207 43.411 56.936 42.8043 56.1695 42.4759C55.42 42.132 54.6733 42.0493 53.9292 42.2279C53.1869 42.374 52.4473 42.7813 51.7103 43.4499C51.1105 43.994 50.6761 44.6518 50.4073 45.4231C50.1556 46.1789 50.1449 47.0108 50.3751 47.9189C50.5898 48.8099 51.1278 49.7645 51.989 50.7827L43.2741 58.6889C41.0251 56.1065 39.7225 53.5342 39.3664 50.972C39.0119 48.3772 39.4111 45.8898 40.5639 43.5099C41.7183 41.0975 43.4267 38.8651 45.689 36.8127C48.1912 34.5427 50.6894 32.9743 53.1837 32.1076C55.678 31.2408 58.0921 31.1294 60.4259 31.7734C62.7443 32.4003 64.8994 33.8114 66.891 36.0068C68.2188 37.4704 69.094 39.0033 69.5165 40.6055C69.9408 42.1752 70.1062 43.8557 70.0127 45.6468C69.921 47.4054 69.7796 49.3331 69.5886 51.43C69.3819 53.1997 69.5078 54.6988 69.9662 55.9273C70.4091 57.1388 71.2233 58.4323 72.4088 59.8078ZM71.017 75.2179C69.9054 73.9926 69.4246 72.5672 69.5747 70.9418C69.7094 69.2994 70.488 67.833 71.9105 66.5425C73.3329 65.252 74.868 64.6194 76.5158 64.6448C78.148 64.6532 79.52 65.2701 80.6316 66.4954C81.7433 67.7207 82.2317 69.1546 82.0971 70.797C81.947 72.4223 81.1607 73.8803 79.7382 75.1708C78.3157 76.4613 76.7883 77.1023 75.156 77.094C73.5083 77.0686 72.1286 76.4432 71.017 75.2179Z" fill="#E23939"/>
</g>
<g filter="url(#filter1_d_2405_218)">
<path d="M95.0198 53.0765L88.8885 54.6456C88.5763 53.3954 88.3868 52.2725 88.32 51.2768C88.2639 50.2634 88.3608 49.3165 88.6107 48.4363C88.8607 47.5562 89.2814 46.6927 89.8731 45.846C90.4041 45.1206 90.8479 44.4402 91.2044 43.8048C91.5609 43.1694 91.8017 42.5561 91.9268 41.9648C92.0519 41.3736 92.0399 40.7796 91.8909 40.1829C91.7064 39.4441 91.4488 38.8676 91.1181 38.4534C90.8016 38.0356 90.4085 37.7659 89.9387 37.6443C89.4796 37.5048 88.9439 37.5135 88.3315 37.6702C87.833 37.7978 87.3931 38.0388 87.012 38.3933C86.645 38.7442 86.3901 39.21 86.2472 39.7907C86.1008 40.3572 86.1162 41.0561 86.2935 41.8874L79.0514 43.7408C78.5655 41.613 78.6062 39.7737 79.1735 38.2228C79.7515 36.654 80.7191 35.371 82.0762 34.3737C83.444 33.3586 85.0678 32.6105 86.9478 32.1294C89.0272 31.5972 90.8944 31.4594 92.5494 31.7161C94.2045 31.9727 95.5887 32.6312 96.702 33.6915C97.8118 34.7376 98.5955 36.177 99.0532 38.0098C99.3583 39.2316 99.3894 40.3573 99.1465 41.3868C98.9142 42.3985 98.504 43.3953 97.9158 44.3772C97.3383 45.3412 96.6825 46.3857 95.9482 47.5108C95.3031 48.4468 94.925 49.3295 94.814 50.159C94.6994 50.9744 94.768 51.9469 95.0198 53.0765ZM89.6304 61.3483C89.375 60.3254 89.5324 59.3782 90.1027 58.5067C90.6695 57.621 91.5439 57.0269 92.726 56.7244C93.9081 56.4219 94.9563 56.5239 95.8708 57.0305C96.7817 57.5229 97.3648 58.2806 97.6203 59.3035C97.8757 60.3265 97.7201 61.2808 97.1533 62.1665C96.583 63.0379 95.7068 63.6249 94.5247 63.9275C93.3426 64.23 92.2961 64.135 91.3853 63.6426C90.4708 63.136 89.8859 62.3712 89.6304 61.3483Z" fill="#8A1616"/>
</g>
<g filter="url(#filter2_d_2405_218)">
<path d="M54.7062 89.6496L56.863 83.6996C55.649 83.2675 54.5498 82.9699 53.5653 82.8068C52.5621 82.6526 51.6103 82.6571 50.71 82.8204C49.8097 82.9837 48.9095 83.3187 48.0094 83.8254C47.2359 84.2835 46.5156 84.6591 45.8486 84.9522C45.1816 85.2454 44.5478 85.4255 43.9472 85.4926C43.3466 85.5597 42.7566 85.4902 42.1771 85.2839C41.4598 85.0286 40.911 84.7163 40.5309 84.3469C40.1458 83.9914 39.9155 83.5739 39.8401 83.0946C39.7458 82.6241 39.8064 82.0917 40.0218 81.4974C40.1972 81.0137 40.4798 80.5993 40.8696 80.2543C41.2545 79.9232 41.7428 79.7147 42.3346 79.6289C42.9127 79.5381 43.6068 79.6213 44.417 79.8785L46.9646 72.8504C44.894 72.1603 43.0594 72.0223 41.4607 72.4363C39.8433 72.8593 38.4724 73.6978 37.3481 74.9517C36.205 76.2145 35.3028 77.7581 34.6415 79.5825C33.91 81.6003 33.5916 83.4454 33.6864 85.1175C33.7811 86.7897 34.3022 88.2313 35.2494 89.4423C36.1829 90.6483 37.5394 91.5681 39.3191 92.2015C40.5055 92.6238 41.6229 92.764 42.6711 92.6221C43.7006 92.4892 44.7325 92.1777 45.7668 91.6876C46.7823 91.2064 47.8856 90.655 49.0766 90.0334C50.0708 89.4822 50.9861 89.1916 51.8225 89.1616C52.6451 89.1267 53.6063 89.2893 54.7062 89.6496ZM63.462 85.0887C62.4687 84.7351 61.5107 84.7999 60.588 85.2829C59.6515 85.761 58.9753 86.5736 58.5595 87.7208C58.1436 88.8679 58.1434 89.9211 58.5589 90.8804C58.9606 91.8348 59.6581 92.4888 60.6514 92.8423C61.6447 93.1958 62.6096 93.1335 63.5461 92.6554C64.4688 92.1724 65.1381 91.3573 65.5539 90.2102C65.9698 89.063 65.9769 88.0123 65.5752 87.0579C65.1597 86.0986 64.4553 85.4422 63.462 85.0887Z" fill="#DB0505"/>
</g>
<path d="M69.0991 67.6717C70.6755 66.2748 72.431 65.5513 74.3419 65.6005L74.3426 65.5999C76.2326 65.6319 77.8369 66.3784 79.0999 67.804C80.3626 69.2296 80.9157 70.9178 80.7381 72.8098L80.7375 72.8194C80.5405 74.7077 79.6019 76.3543 78.0265 77.7502C76.4511 79.1461 74.7037 79.8798 72.8057 79.8476L72.796 79.847C70.897 79.7952 69.2884 79.0419 68.0258 77.6165C66.763 76.1907 66.2147 74.5084 66.4107 72.6281C66.592 70.7244 67.5225 69.0687 69.0991 67.6717ZM43.2328 37.6318C45.8282 35.3321 48.4482 33.7186 51.0955 32.8334C53.7574 31.9433 56.3615 31.8459 58.8802 32.5729L58.8794 32.5736C61.3908 33.2856 63.6693 34.8367 65.7218 37.1538C67.1099 38.7211 68.0483 40.3907 68.4935 42.1637L68.4921 42.1637C68.923 43.8387 69.0757 45.6159 68.9558 47.4899C68.8424 49.2611 68.677 51.1992 68.4602 53.3033L68.4588 53.315L68.4568 53.326C68.2414 54.9993 68.3549 56.3465 68.7358 57.4054L68.7375 57.4104C69.1182 58.4911 69.848 59.7 70.9731 61.0374L71.5423 61.7138L62.7451 69.5089L62.1435 68.8297C60.7767 67.2867 59.6642 65.8179 58.8164 64.4241L58.8114 64.4155C57.9546 62.9688 57.3656 61.4869 57.0575 59.9729C56.749 58.4567 56.7159 56.8486 56.9448 55.1563L56.9454 55.1466L56.9474 55.1371C57.1627 53.7733 57.2888 52.5438 57.3276 51.4469C57.3654 50.38 57.2651 49.4475 57.0422 48.6401C56.8278 47.8634 56.4495 47.1682 55.8995 46.5473C55.1591 45.7114 54.4827 45.1949 53.8793 44.9279L53.8686 44.9231L53.8585 44.9177C53.2817 44.6446 52.7424 44.5868 52.2103 44.708L52.1921 44.7124L52.1739 44.7154C51.6358 44.8148 51.0373 45.1145 50.3782 45.6986C49.8886 46.1324 49.5328 46.6543 49.3059 47.2776C49.1127 47.8384 49.0848 48.4892 49.2704 49.2596L49.2733 49.2702C49.4349 49.9776 49.8714 50.8122 50.6683 51.7775L51.2258 52.4539L41.0705 61.4522L40.4705 60.7469C38.1745 58.0465 36.7996 55.2998 36.4454 52.5105L36.4456 52.5077C36.0996 49.7295 36.5594 47.067 37.819 44.5425C39.0606 42.0257 40.8722 39.7234 43.2328 37.6318Z" stroke="white" stroke-width="1.81447"/>
<path d="M90.8153 56.5217C92.1184 56.2045 93.32 56.3217 94.3761 56.9233L94.3752 56.9235C95.4207 57.5064 96.0926 58.4056 96.3722 59.5842C96.6519 60.764 96.4572 61.8801 95.792 62.8934L95.7884 62.8993C95.1131 63.9051 94.0948 64.5528 92.7951 64.8692C91.4953 65.1856 90.2977 65.0772 89.2451 64.4922L89.2393 64.4886C88.1922 63.892 87.5174 62.9877 87.2375 61.8079C86.9581 60.6294 87.1536 59.5188 87.8233 58.5184C88.4944 57.4964 89.5123 56.8389 90.8153 56.5217ZM85.3283 31.8584C87.4691 31.3373 89.4188 31.2109 91.1654 31.5029C92.9205 31.7963 94.4056 32.5186 95.5968 33.6795C96.7898 34.8312 97.6009 36.3871 98.0563 38.3072C98.3637 39.6035 98.3884 40.8229 98.1082 41.9539L98.1094 41.9547C97.8495 43.0287 97.4021 44.0773 96.7736 45.099C96.1803 46.0637 95.5076 47.1069 94.7568 48.2283L94.7532 48.2342L94.7486 48.2403C94.1276 49.1192 93.7876 49.9122 93.6838 50.6232L93.6838 50.6273C93.5734 51.3505 93.62 52.2497 93.8494 53.3398L93.9652 53.8915L86.7084 55.6581L86.575 55.0956C86.2719 53.8176 86.0897 52.6572 86.0323 51.6185L86.0317 51.6116C85.9851 50.5404 86.0991 49.5294 86.3795 48.5841C86.6605 47.6375 87.1227 46.7212 87.757 45.8356L87.7645 45.8247C88.2929 45.1203 88.7306 44.4648 89.0805 43.8581C89.4208 43.268 89.6441 42.7128 89.761 42.1909C89.8734 41.6887 89.8703 41.1831 89.7482 40.6683C89.5838 39.9755 89.3591 39.4815 89.1011 39.1504L89.0969 39.1454L89.0925 39.1394C88.8512 38.8129 88.5674 38.6189 88.234 38.5283L88.2104 38.522C87.88 38.4173 87.4559 38.4071 86.9128 38.5393C86.5103 38.6373 86.1557 38.8238 85.8429 39.1063C85.5663 39.3647 85.3558 39.7244 85.2288 40.2156L85.1865 40.3968C85.1063 40.8223 85.1196 41.3684 85.2571 42.053L85.3668 42.6002L76.9903 44.6393L76.8658 44.0636C76.3891 41.8556 76.4412 39.8969 77.0774 38.2189L77.0782 38.2177C77.6758 36.6526 78.6401 35.3565 79.9617 34.3377L80.2304 34.1376C81.6785 33.0895 83.3812 32.3324 85.3283 31.8584Z" stroke="white" stroke-width="1.15453"/>
<path d="M58.5431 85.7995C58.101 87.0656 58.101 88.2729 58.5972 89.3824L58.5975 89.3815C59.0761 90.4787 59.9059 91.2347 61.0518 91.6273C62.1989 92.0203 63.3286 91.9348 64.4017 91.3712L64.4079 91.3681C65.4745 90.7937 66.218 89.8431 66.6591 88.5802C67.1002 87.3173 67.1085 86.1148 66.6284 85.0104L66.6254 85.0042C66.1333 83.9042 65.2987 83.1448 64.1517 82.7517C63.0059 82.3591 61.8815 82.4459 60.8209 83.0154C59.7386 83.5841 58.9853 84.5333 58.5431 85.7995ZM34.529 77.9443C33.8025 80.0244 33.4874 81.9526 33.6085 83.7194C33.7302 85.4946 34.3049 87.0429 35.3447 88.3411C36.3752 89.6403 37.845 90.5986 39.7117 91.2382C40.9721 91.67 42.1833 91.8129 43.3363 91.6439L43.3369 91.6451C44.431 91.4907 45.5182 91.1472 46.5961 90.6208C47.6137 90.1239 48.7173 89.5557 49.9063 88.9173L49.9125 88.9143L49.9191 88.9103C50.8541 88.3775 51.6763 88.1161 52.3941 88.0819L52.3981 88.0822C53.1286 88.0426 54.0191 88.1762 55.0818 88.5104L55.6197 88.6792L58.0822 81.6281L57.5353 81.4407C56.2928 81.015 55.1556 80.721 54.1273 80.5631L54.1205 80.5618C53.059 80.4115 52.0417 80.4267 51.0736 80.6141C50.1042 80.8018 49.1473 81.1729 48.2044 81.7183L48.1928 81.7247C47.4405 82.1823 46.7456 82.5543 46.1077 82.8436C45.4874 83.125 44.9131 83.2934 44.3823 83.3591C43.8716 83.4222 43.3687 83.37 42.8682 83.1985C42.1946 82.9677 41.7248 82.6961 41.4202 82.4071L41.4157 82.4025L41.4102 82.3975C41.1086 82.1257 40.9431 81.8244 40.8853 81.4837L40.8813 81.4596C40.8092 81.1206 40.8402 80.6976 41.0245 80.1698C41.1611 79.7788 41.3812 79.4439 41.6927 79.16C41.9767 78.9098 42.3551 78.7353 42.8563 78.6565L43.0408 78.632C43.4721 78.5935 44.0143 78.6597 44.6823 78.8631L45.2163 79.0254L48.0588 70.8864L47.4979 70.7066C45.3466 70.0177 43.3921 69.8795 41.6603 70.3498L41.659 70.3504C40.0433 70.7934 38.6597 71.6273 37.5175 72.8438L37.2922 73.0918C36.1085 74.4312 35.1897 76.0525 34.529 77.9443Z" stroke="white" stroke-width="1.15453"/>
<path d="M93.7188 12.3001C92.8265 15.2982 89.0945 21.0915 81.3048 20.2794C71.5676 19.2643 65.922 17.0905 58.0626 22.3968" stroke="white" stroke-linecap="round"/>
<path d="M16.2853 62.7968C17.4743 61.7181 19.3018 61.8038 20.3672 62.9781C21.4326 64.1525 21.3404 65.9796 20.1514 67.0583C18.9624 68.1367 17.1355 68.0506 16.0702 66.8764C15.005 65.7021 15.0966 63.8755 16.2853 62.7968Z" stroke="white"/>
<mask id="path-9-inside-1_2405_218" fill="white">
<ellipse cx="103.59" cy="62.2554" rx="0.952235" ry="0.945566" transform="rotate(-42.2148 103.59 62.2554)"/>
</mask>
<path d="M104.295 61.6155L103.555 62.2875C103.53 62.2603 103.539 62.2283 103.554 62.2151L104.226 62.9557L104.897 63.6963C105.691 62.9763 105.763 61.7443 105.036 60.9436L104.295 61.6155ZM104.226 62.9557L103.554 62.2151C103.568 62.2018 103.601 62.1961 103.626 62.2233L102.885 62.8952L102.144 63.5671C102.871 64.3678 104.104 64.4163 104.897 63.6963L104.226 62.9557ZM102.885 62.8952L103.626 62.2233C103.65 62.2504 103.641 62.2824 103.627 62.2957L102.955 61.5551L102.283 60.8144C101.489 61.5344 101.418 62.7664 102.144 63.5671L102.885 62.8952ZM102.955 61.5551L103.627 62.2957C103.612 62.3089 103.579 62.3146 103.555 62.2875L104.295 61.6155L105.036 60.9436C104.31 60.1429 103.077 60.0944 102.283 60.8144L102.955 61.5551Z" fill="white" mask="url(#path-9-inside-1_2405_218)"/>
<defs>
<filter id="filter0_d_2405_218" x="0.180733" y="11.8313" width="120.999" height="123.854" filterUnits="userSpaceOnUse" color-interpolation-filters="sRGB">
<feFlood flood-opacity="0" result="BackgroundImageFix"/>
<feColorMatrix in="SourceAlpha" type="matrix" values="0 0 0 0 0 0 0 0 0 0 0 0 0 0 0 0 0 0 127 0" result="hardAlpha"/>
<feOffset dy="19.5303"/>
<feGaussianBlur stdDeviation="19.5303"/>
<feComposite in2="hardAlpha" operator="out"/>
<feColorMatrix type="matrix" values="0 0 0 0 0.305882 0 0 0 0 0.282353 0 0 0 0 0.282353 0 0 0 0.5 0"/>
<feBlend mode="normal" in2="BackgroundImageFix" result="effect1_dropShadow_2405_218"/>
<feBlend mode="normal" in="SourceGraphic" in2="effect1_dropShadow_2405_218" result="shape"/>
</filter>
<filter id="filter1_d_2405_218" x="53.8613" y="19.1639" width="70.3005" height="82.2169" filterUnits="userSpaceOnUse" color-interpolation-filters="sRGB">
<feFlood flood-opacity="0" result="BackgroundImageFix"/>
<feColorMatrix in="SourceAlpha" type="matrix" values="0 0 0 0 0 0 0 0 0 0 0 0 0 0 0 0 0 0 127 0" result="hardAlpha"/>
<feOffset dy="12.4269"/>
<feGaussianBlur stdDeviation="12.4269"/>
<feComposite in2="hardAlpha" operator="out"/>
<feColorMatrix type="matrix" values="0 0 0 0 0.305882 0 0 0 0 0.282353 0 0 0 0 0.282353 0 0 0 0.5 0"/>
<feBlend mode="normal" in2="BackgroundImageFix" result="effect1_dropShadow_2405_218"/>
<feBlend mode="normal" in="SourceGraphic" in2="effect1_dropShadow_2405_218" result="shape"/>
</filter>
<filter id="filter2_d_2405_218" x="8.81633" y="59.7765" width="81.9087" height="70.5718" filterUnits="userSpaceOnUse" color-interpolation-filters="sRGB">
<feFlood flood-opacity="0" result="BackgroundImageFix"/>
<feColorMatrix in="SourceAlpha" type="matrix" values="0 0 0 0 0 0 0 0 0 0 0 0 0 0 0 0 0 0 127 0" result="hardAlpha"/>
<feOffset dy="12.4269"/>
<feGaussianBlur stdDeviation="12.4269"/>
<feComposite in2="hardAlpha" operator="out"/>
<feColorMatrix type="matrix" values="0 0 0 0 0.307692 0 0 0 0 0.28353 0 0 0 0 0.28353 0 0 0 0.5 0"/>
<feBlend mode="normal" in2="BackgroundImageFix" result="effect1_dropShadow_2405_218"/>
<feBlend mode="normal" in="SourceGraphic" in2="effect1_dropShadow_2405_218" result="shape"/>
</filter>
</defs>
</svg>
