<svg width="218" height="246" viewBox="0 0 218 246" fill="none" xmlns="http://www.w3.org/2000/svg">
<g filter="url(#filter0_d_2158_2223)">
<path d="M116.84 111.479L102.771 124.242C100.298 121.515 98.3152 118.936 96.824 116.504C95.3373 114.012 94.3416 111.47 93.8367 108.878C93.3319 106.285 93.2989 103.491 93.7379 100.494C94.1775 97.8925 94.447 95.5298 94.5461 93.4064C94.6453 91.2829 94.4689 89.3811 94.0171 87.701C93.5653 86.021 92.7491 84.5302 91.5684 83.2289C90.1067 81.6177 88.667 80.5232 87.2492 79.9454C85.864 79.338 84.4727 79.2163 83.0753 79.5803C81.6824 79.8837 80.2833 80.6728 78.8781 81.9476C77.7343 82.9853 76.8948 84.227 76.3596 85.6728C75.8571 87.089 75.8014 88.6365 76.1924 90.3152C76.5553 91.963 77.5193 93.7151 79.0843 95.5715L62.4667 110.647C58.3764 105.942 56.0536 101.214 55.4982 96.4647C54.9474 91.6547 55.7996 87.0122 58.0549 82.5372C60.3148 78.0016 63.6016 73.7771 67.9153 69.8636C72.6865 65.5351 77.4203 62.5115 82.1166 60.7929C86.8128 59.0742 91.3269 58.7635 95.6587 59.8609C99.9624 60.9273 103.927 63.459 107.554 67.456C109.971 70.1207 111.54 72.9337 112.261 75.8951C112.986 78.7959 113.223 81.9136 112.971 85.2484C112.725 88.5225 112.378 92.1133 111.931 96.0207C111.469 99.3205 111.64 102.103 112.444 104.368C113.219 106.601 114.684 108.972 116.84 111.479ZM113.579 140.194C111.556 137.963 110.719 135.334 111.069 132.305C111.391 129.245 112.908 126.484 115.62 124.024C118.333 121.563 121.227 120.321 124.304 120.297C127.353 120.243 129.889 121.331 131.913 123.562C133.937 125.793 134.788 128.438 134.466 131.498C134.116 134.527 132.584 137.272 129.872 139.733C127.16 142.194 124.279 143.451 121.23 143.506C118.154 143.529 115.603 142.425 113.579 140.194Z" fill="#E23939"/>
</g>
<g filter="url(#filter1_d_2158_2223)">
<path d="M159.364 97.9922L147.844 101.173C147.314 98.8614 147.008 96.7814 146.926 94.9329C146.865 93.0506 147.087 91.2858 147.591 89.6383C148.096 87.9909 148.919 86.3672 150.06 84.7673C151.083 83.3957 151.941 82.1114 152.634 80.9146C153.328 79.7178 153.804 78.5669 154.063 77.4621C154.322 76.3572 154.325 75.2532 154.072 74.1499C153.759 72.784 153.303 71.7231 152.703 70.9671C152.129 70.2037 151.407 69.7191 150.534 69.513C149.683 69.2734 148.682 69.3124 147.531 69.6301C146.594 69.8887 145.763 70.3558 145.035 71.0314C144.335 71.6995 143.839 72.5766 143.547 73.6626C143.249 74.7224 143.248 76.0214 143.543 77.5596L129.936 81.3166C129.12 77.3807 129.275 73.9585 130.401 71.0502C131.548 68.1082 133.41 65.6809 135.988 63.7683C138.586 61.822 141.652 60.3612 145.184 59.3859C149.091 58.3072 152.585 57.971 155.665 58.3772C158.746 58.7835 161.303 59.9486 163.337 61.8726C165.365 63.7704 166.767 66.4135 167.544 69.8019C168.061 72.0609 168.071 74.1528 167.573 76.0778C167.096 77.969 166.287 79.8402 165.146 81.6912C164.026 83.5086 162.756 85.4791 161.337 87.6027C160.091 89.3708 159.347 91.0286 159.104 92.5759C158.855 94.0969 158.942 95.9024 159.364 97.9922ZM148.942 113.605C148.509 111.714 148.844 109.946 149.946 108.301C151.043 106.629 152.702 105.487 154.923 104.874C157.144 104.261 159.097 104.406 160.784 105.308C162.464 106.185 163.521 107.569 163.954 109.46C164.388 111.351 164.056 113.133 162.959 114.804C161.857 116.449 160.195 117.578 157.974 118.191C155.753 118.805 153.802 118.673 152.122 117.796C150.435 116.893 149.376 115.496 148.942 113.605Z" fill="#8A1616"/>
</g>
<g filter="url(#filter2_d_2158_2223)">
<path d="M82.4935 167.73L86.7774 156.573C84.5282 155.822 82.4877 155.316 80.6558 155.054C78.7885 154.811 77.0105 154.86 75.3218 155.202C73.6331 155.545 71.9373 156.206 70.2341 157.187C68.7697 158.072 67.4082 158.801 66.1497 159.375C64.8913 159.949 63.6997 160.311 62.5749 160.461C61.4501 160.612 60.3509 160.508 59.2775 160.149C57.9484 159.705 56.9368 159.148 56.2426 158.477C55.5385 157.833 55.1262 157.066 55.0058 156.178C54.85 155.307 54.986 154.315 55.4139 153.2C55.7622 152.293 56.3078 151.511 57.0508 150.852C57.7838 150.22 58.7049 149.811 59.8141 149.626C60.8977 149.433 62.1907 149.558 63.693 150.001L68.7531 136.823C64.915 135.628 61.494 135.45 58.4901 136.289C55.4507 137.145 52.8541 138.763 50.7002 141.143C48.5109 143.54 46.7594 146.449 45.4459 149.87C43.9931 153.654 43.3193 157.098 43.4246 160.204C43.5299 163.309 44.4413 165.967 46.1588 168.179C47.8507 170.381 50.3452 172.034 53.6423 173.135C55.8404 173.87 57.9215 174.082 59.8856 173.774C61.8143 173.482 63.7551 172.859 65.7082 171.903C67.6257 170.965 69.7101 169.892 71.9615 168.685C73.8422 167.618 75.5643 167.038 77.1279 166.946C78.6659 166.846 80.4545 167.107 82.4935 167.73ZM99.0442 158.873C97.204 158.259 95.4117 158.42 93.6675 159.358C91.8976 160.287 90.5997 161.827 89.7738 163.978C88.9479 166.129 88.9024 168.088 89.6373 169.854C90.3467 171.611 91.6215 172.797 93.4618 173.412C95.302 174.027 97.107 173.87 98.8769 172.941C100.621 172.003 101.906 170.459 102.732 168.308C103.558 166.157 103.616 164.202 102.907 162.445C102.172 160.679 100.884 159.488 99.0442 158.873Z" fill="#DB0505"/>
</g>
<path d="M110.814 126.801C113.684 124.255 116.796 122.935 120.131 122.946C123.436 122.926 126.209 124.154 128.381 126.608C130.552 129.062 131.447 131.978 131.06 135.286L131.058 135.295C130.639 138.582 128.941 141.5 126.072 144.046C123.202 146.591 120.104 147.926 116.795 147.946L116.786 147.947C113.46 147.933 110.676 146.692 108.505 144.238C106.469 141.937 105.566 139.241 105.806 136.208L105.869 135.597C106.26 132.281 107.944 129.347 110.814 126.801ZM63.7861 72.0493C68.6688 67.7183 73.5344 64.6766 78.3849 62.9638C83.2474 61.2468 87.9475 60.9685 92.4587 62.1685L92.8791 62.2825C97.2101 63.5101 101.151 66.1666 104.705 70.1841C107.17 72.9699 108.785 75.9342 109.511 79.0758L109.512 79.0759C110.227 82.0916 110.43 85.3124 110.132 88.7313C109.846 92.0179 109.455 95.6183 108.961 99.5319L108.96 99.5436L108.957 99.5546C108.471 102.759 108.618 105.388 109.332 107.483L109.335 107.488C110.036 109.59 111.4 111.88 113.477 114.359L114.045 115.036L98.4951 128.829L97.8939 128.15C95.4271 125.362 93.4403 122.712 91.9432 120.201L91.9375 120.192C90.4342 117.599 89.4296 114.945 88.9353 112.233C88.4407 109.519 88.4438 106.618 88.9318 103.538L88.9357 103.519C89.4009 100.949 89.6928 98.6248 89.8146 96.5453C89.9346 94.4955 89.7841 92.6865 89.3803 91.1085C88.9848 89.5634 88.2557 88.1914 87.186 86.9823C85.7991 85.4148 84.4789 84.4048 83.2352 83.8802L83.2136 83.8706C82.0129 83.3264 80.8321 83.2141 79.639 83.5103L79.6207 83.5147L79.6032 83.5185C78.4065 83.7648 77.1387 84.441 75.8003 85.6282C74.7538 86.5565 73.9836 87.6674 73.4838 88.9713C73.037 90.1936 72.9627 91.5588 73.3008 93.0943L73.3029 93.1041C73.6059 94.5638 74.4565 96.1968 75.9433 98.0056L76.4983 98.6816L58.3656 114.766L57.7661 114.059C53.6521 109.205 51.2833 104.282 50.7606 99.2938L50.76 99.2917C50.2481 94.2901 51.1924 89.4777 53.5778 84.8755C55.9484 80.2512 59.3581 75.9769 63.7861 72.0493Z" stroke="white" stroke-width="1.81447"/>
<path d="M151.465 105.054C153.805 104.436 155.907 104.602 157.726 105.605L157.725 105.606C159.533 106.579 160.672 108.11 161.116 110.166C161.562 112.222 161.175 114.169 159.968 115.964L159.964 115.969C158.745 117.744 156.937 118.926 154.6 119.543C152.263 120.159 150.167 120.007 148.353 119.033L148.348 119.03C146.536 118.031 145.394 116.488 144.949 114.431C144.504 112.375 144.892 110.441 146.106 108.671C147.319 106.868 149.125 105.671 151.465 105.054ZM142.274 59.4259C146.244 58.3784 149.818 58.0708 152.983 58.5267C156.157 58.9838 158.807 60.2236 160.906 62.259C163.006 64.2735 164.42 67.0434 165.174 70.5276C165.68 72.8674 165.67 75.057 165.121 77.0846C164.604 79.0379 163.747 80.9587 162.556 82.8446C161.41 84.6574 160.113 86.62 158.665 88.7331L158.662 88.7392L158.657 88.7454C157.427 90.4504 156.716 92.0134 156.475 93.4385L156.474 93.4429C156.224 94.8684 156.28 96.6003 156.668 98.6524L156.773 99.205L144.121 102.543L143.999 101.979C143.491 99.6349 143.205 97.5141 143.144 95.6198L143.143 95.6128L143.142 94.8899C143.17 93.2144 143.421 91.6259 143.899 90.1276C144.445 88.4141 145.32 86.7399 146.514 85.1063L146.521 85.0962C147.549 83.7505 148.407 82.4953 149.099 81.3307C149.782 80.1826 150.245 79.0925 150.5 78.0595C150.749 77.0471 150.764 76.0344 150.543 75.014C150.258 73.6935 149.84 72.7139 149.318 72.0381L149.309 72.0262C148.815 71.3516 148.203 70.9366 147.466 70.7529L147.455 70.7497L147.443 70.7467C146.719 70.5333 145.827 70.5457 144.742 70.8319C143.895 71.0553 143.143 71.4657 142.479 72.0685C141.869 72.6397 141.417 73.4058 141.139 74.3956L141.137 74.402C140.862 75.3382 140.835 76.5376 141.102 78.0274L141.201 78.5764L126.451 82.4678L126.338 81.8893C125.553 77.8642 125.742 74.3191 126.957 71.2852L126.958 71.284C128.183 68.2443 130.146 65.7448 132.835 63.7956C135.523 61.8296 138.673 60.3759 142.274 59.4259Z" stroke="white" stroke-width="1.15453"/>
<path d="M90.2883 160.554C89.4468 162.823 89.408 164.931 90.2298 166.839L90.2301 166.839C91.023 168.732 92.4364 170.014 94.4392 170.656C96.4432 171.299 98.4182 171.103 100.322 170.076L100.328 170.072C102.212 169.032 103.564 167.347 104.405 165.081C105.245 162.815 105.297 160.713 104.503 158.814L104.501 158.808C103.683 156.908 102.258 155.622 100.254 154.979C98.2511 154.337 96.2883 154.536 94.4088 155.572C92.4967 156.603 91.1299 158.285 90.2883 160.554ZM45.7682 146.977C44.3403 150.827 43.6872 154.354 43.8337 157.549C43.9806 160.752 44.9574 163.509 46.7793 165.797C48.5805 168.083 51.2 169.758 54.5946 170.847C56.8742 171.578 59.0544 171.78 61.1257 171.431C63.12 171.106 65.115 170.44 67.1076 169.437C69.023 168.472 71.1023 167.372 73.346 166.136L73.3523 166.133L73.359 166.129C75.1752 165.071 76.7999 164.515 78.2417 164.413L78.2461 164.413C79.6892 164.302 81.4076 164.525 83.4123 165.111L83.9521 165.269L88.5023 153.001L87.9527 152.824C85.6691 152.092 83.5861 151.602 81.7067 151.356L81.6999 151.355L80.9805 151.283C79.3102 151.149 77.7048 151.245 76.1672 151.575C74.4087 151.952 72.6575 152.661 70.9158 153.69L70.905 153.697C69.4659 154.588 68.1333 155.321 66.907 155.897C65.6981 156.465 64.5682 156.82 63.5153 156.973C62.4835 157.123 61.4741 157.04 60.4799 156.721C59.1935 156.309 58.259 155.798 57.6371 155.212L57.6261 155.202C57.0026 154.646 56.649 153.996 56.5378 153.244L56.5356 153.233L56.5338 153.221C56.3917 152.479 56.4906 151.593 56.8808 150.541C57.1854 149.719 57.6669 149.011 58.3312 148.409C58.9589 147.857 59.7653 147.482 60.7773 147.301L60.7839 147.3C61.7424 147.117 62.9388 147.206 64.3956 147.617L64.9324 147.768L70.2372 133.466L69.6724 133.297C65.7425 132.126 62.1958 131.969 59.0583 132.884L59.057 132.884C55.9127 133.809 53.2345 135.52 51.0334 138.008C48.8158 140.492 47.0633 143.485 45.7682 146.977Z" stroke="white" stroke-width="1.15453"/>
<path d="M158.682 22.2221C156.887 27.8355 149.667 38.7683 135.151 37.5921C117.007 36.1219 106.554 32.3217 91.6462 42.5261" stroke="white" stroke-linecap="round"/>
<path d="M11.6025 119.139C14.0693 116.901 17.7513 117.008 19.8307 119.301C21.9101 121.593 21.6598 125.268 19.193 127.506C16.7262 129.743 13.0449 129.635 10.9655 127.343C8.88619 125.051 9.13592 121.377 11.6025 119.139Z" stroke="white"/>
<path d="M174.158 113.789C174.715 113.284 175.517 113.328 175.954 113.809C176.391 114.291 176.357 115.093 175.8 115.599C175.243 116.104 174.441 116.059 174.005 115.578C173.568 115.096 173.601 114.294 174.158 113.789Z" stroke="white"/>
<g filter="url(#filter3_d_2158_2223)">
<g opacity="0.8">
<path d="M158.55 159.378L159.712 148.405L155.587 143.866L150.499 148.404L149.413 158.663L158.55 159.378Z" fill="#DB0505"/>
<path d="M157.177 172.341L156.534 178.415L147.321 178.414L148.04 171.627L157.177 172.341Z" fill="#DB0505"/>
<rect width="11.8452" height="1.86284" transform="matrix(-1 -0.000103653 -0.105315 0.994439 157.771 179.156)" fill="#DB0505"/>
<rect width="9.21292" height="1.86284" transform="matrix(-1 -0.000103653 -0.105315 0.994439 155.71 186.195)" fill="#DB0505"/>
<path d="M152.803 188.788L148.854 188.788L148.14 195.531C148.025 196.616 148.816 197.495 149.907 197.495C150.997 197.495 151.974 196.616 152.089 195.532L152.803 188.788Z" fill="#DB0505"/>
<rect width="21.6222" height="3.72567" rx="1.86284" transform="matrix(-1 -0.000103653 -0.105315 0.994439 162.385 181.75)" fill="#DB0505"/>
</g>
<path d="M135.203 168.587L165.266 171.225L167.032 162.183L136.97 159.545L131.54 163.667L135.203 168.587Z" fill="#DB0505"/>
<rect width="11.8452" height="1.86284" transform="matrix(0.191731 -0.981448 0.996173 0.0874071 165.756 172.581)" fill="#DB0505"/>
<rect width="9.21292" height="1.86284" transform="matrix(0.191731 -0.981448 0.996173 0.0874071 173.059 171.909)" fill="#DB0505"/>
<path d="M176.162 169.553L176.92 165.678L183.675 166.271C184.761 166.366 185.472 167.311 185.263 168.381C185.054 169.451 184.004 170.241 182.918 170.146L176.162 169.553Z" fill="#DB0505"/>
<rect width="21.6222" height="3.72567" rx="1.86284" transform="matrix(0.191731 -0.981448 0.996173 0.0874071 167.416 177.607)" fill="#DB0505"/>
</g>
<defs>
<filter id="filter0_d_2158_2223" x="16.2754" y="39.6892" width="157.317" height="162.408" filterUnits="userSpaceOnUse" color-interpolation-filters="sRGB">
<feFlood flood-opacity="0" result="BackgroundImageFix"/>
<feColorMatrix in="SourceAlpha" type="matrix" values="0 0 0 0 0 0 0 0 0 0 0 0 0 0 0 0 0 0 127 0" result="hardAlpha"/>
<feOffset dy="19.5303"/>
<feGaussianBlur stdDeviation="19.5303"/>
<feComposite in2="hardAlpha" operator="out"/>
<feColorMatrix type="matrix" values="0 0 0 0 0.305882 0 0 0 0 0.282353 0 0 0 0 0.282353 0 0 0 0.5 0"/>
<feBlend mode="normal" in2="BackgroundImageFix" result="effect1_dropShadow_2158_2223"/>
<feBlend mode="normal" in="SourceGraphic" in2="effect1_dropShadow_2158_2223" result="shape"/>
</filter>
<filter id="filter1_d_2158_2223" x="104.568" y="45.7836" width="88.2252" height="110.067" filterUnits="userSpaceOnUse" color-interpolation-filters="sRGB">
<feFlood flood-opacity="0" result="BackgroundImageFix"/>
<feColorMatrix in="SourceAlpha" type="matrix" values="0 0 0 0 0 0 0 0 0 0 0 0 0 0 0 0 0 0 127 0" result="hardAlpha"/>
<feOffset dy="12.4269"/>
<feGaussianBlur stdDeviation="12.4269"/>
<feComposite in2="hardAlpha" operator="out"/>
<feColorMatrix type="matrix" values="0 0 0 0 0.305882 0 0 0 0 0.282353 0 0 0 0 0.282353 0 0 0 0.5 0"/>
<feBlend mode="normal" in2="BackgroundImageFix" result="effect1_dropShadow_2158_2223"/>
<feBlend mode="normal" in="SourceGraphic" in2="effect1_dropShadow_2158_2223" result="shape"/>
</filter>
<filter id="filter2_d_2158_2223" x="18.5601" y="123.343" width="109.692" height="87.8481" filterUnits="userSpaceOnUse" color-interpolation-filters="sRGB">
<feFlood flood-opacity="0" result="BackgroundImageFix"/>
<feColorMatrix in="SourceAlpha" type="matrix" values="0 0 0 0 0 0 0 0 0 0 0 0 0 0 0 0 0 0 127 0" result="hardAlpha"/>
<feOffset dy="12.4269"/>
<feGaussianBlur stdDeviation="12.4269"/>
<feComposite in2="hardAlpha" operator="out"/>
<feColorMatrix type="matrix" values="0 0 0 0 0.307692 0 0 0 0 0.28353 0 0 0 0 0.28353 0 0 0 0.5 0"/>
<feBlend mode="normal" in2="BackgroundImageFix" result="effect1_dropShadow_2158_2223"/>
<feBlend mode="normal" in="SourceGraphic" in2="effect1_dropShadow_2158_2223" result="shape"/>
</filter>
<filter id="filter3_d_2158_2223" x="99.54" y="127.866" width="117.759" height="117.629" filterUnits="userSpaceOnUse" color-interpolation-filters="sRGB">
<feFlood flood-opacity="0" result="BackgroundImageFix"/>
<feColorMatrix in="SourceAlpha" type="matrix" values="0 0 0 0 0 0 0 0 0 0 0 0 0 0 0 0 0 0 127 0" result="hardAlpha"/>
<feOffset dy="16"/>
<feGaussianBlur stdDeviation="16"/>
<feComposite in2="hardAlpha" operator="out"/>
<feColorMatrix type="matrix" values="0 0 0 0 0.305882 0 0 0 0 0.282353 0 0 0 0 0.282353 0 0 0 0.5 0"/>
<feBlend mode="normal" in2="BackgroundImageFix" result="effect1_dropShadow_2158_2223"/>
<feBlend mode="normal" in="SourceGraphic" in2="effect1_dropShadow_2158_2223" result="shape"/>
</filter>
</defs>
</svg>
