<svg width="122" height="116" viewBox="0 0 122 116" fill="none" xmlns="http://www.w3.org/2000/svg">
<g filter="url(#filter0_d_3624_441)">
<path d="M63.0931 37.9189L57.718 42.2602C56.7729 41.3327 56.0154 40.4554 55.4457 39.6283C54.8777 38.7805 54.4973 37.9158 54.3044 37.034C54.1115 36.1523 54.0989 35.2018 54.2666 34.1825C54.4346 33.2975 54.5375 32.4939 54.5754 31.7716C54.6133 31.0493 54.5459 30.4024 54.3733 29.831C54.2007 29.2595 53.8888 28.7524 53.4378 28.3098C52.8793 27.7618 52.3292 27.3895 51.7875 27.1929C51.2583 26.9863 50.7267 26.9449 50.1928 27.0688C49.6606 27.172 49.1261 27.4404 48.5892 27.874C48.1522 28.2269 47.8315 28.6493 47.627 29.1411C47.435 29.6228 47.4137 30.1492 47.5631 30.7202C47.7018 31.2806 48.0701 31.8766 48.668 32.5081L42.319 37.636C40.7562 36.0354 39.8688 34.4273 39.6566 32.8119C39.4461 31.1758 39.7717 29.5967 40.6334 28.0745C41.4968 26.5318 42.7526 25.0948 44.4007 23.7637C46.2236 22.2914 48.0322 21.2629 49.8265 20.6783C51.6208 20.0937 53.3455 19.9881 55.0005 20.3613C56.6448 20.7241 58.1597 21.5852 59.5451 22.9448C60.4687 23.8511 61.0682 24.808 61.3435 25.8153C61.6206 26.8019 61.7111 27.8624 61.6151 28.9967C61.5208 30.1104 61.3883 31.3318 61.2176 32.6609C61.0412 33.7833 61.1065 34.7296 61.4135 35.5C61.7097 36.2598 62.2696 37.0661 63.0931 37.9189ZM61.8474 47.6863C61.0742 46.9274 60.7544 46.0329 60.8881 45.0026C61.0112 43.9618 61.5908 43.0229 62.6271 42.1859C63.6634 41.3489 64.7694 40.9264 65.9449 40.9184C67.1096 40.8999 68.0786 41.2701 68.8519 42.0289C69.6252 42.7877 69.9503 43.6876 69.8273 44.7284C69.6935 45.7586 69.1085 46.6923 68.0722 47.5293C67.0359 48.3663 65.9353 48.794 64.7706 48.8125C63.5951 48.8205 62.6207 48.4451 61.8474 47.6863Z" fill="#E23939"/>
</g>
<g filter="url(#filter1_d_3624_441)">
<path d="M79.3395 33.3315L74.9381 34.4134C74.7358 33.6271 74.619 32.9196 74.5876 32.2909C74.5642 31.6506 74.6488 31.0503 74.8416 30.49C75.0344 29.9296 75.3488 29.3773 75.7849 28.8331C76.1758 28.3666 76.5036 27.9297 76.7684 27.5226C77.0333 27.1155 77.2152 26.7241 77.3141 26.3483C77.4131 25.9725 77.4143 25.5969 77.3177 25.2217C77.1982 24.7571 77.0238 24.3962 76.7945 24.1391C76.5755 23.8794 76.2994 23.7145 75.9661 23.6445C75.6407 23.5629 75.2583 23.5762 74.8186 23.6843C74.4608 23.7722 74.143 23.9311 73.8651 24.1609C73.5975 24.3882 73.4079 24.6865 73.2964 25.0559C73.1827 25.4164 73.1822 25.8582 73.2951 26.3815L68.0963 27.6594C67.7844 26.3206 67.8436 25.1566 68.2739 24.1673C68.7121 23.1666 69.4236 22.341 70.4084 21.6904C71.4012 21.0284 72.5724 20.5315 73.9219 20.1998C75.4146 19.8329 76.7494 19.7185 77.9264 19.8567C79.1034 19.9949 80.0804 20.3912 80.8576 21.0456C81.6325 21.6911 82.1682 22.5902 82.4648 23.7427C82.6625 24.5111 82.6663 25.2227 82.476 25.8774C82.2937 26.5207 81.9847 27.1572 81.5488 27.7868C81.1209 28.405 80.6357 29.0752 80.0933 29.7975C79.6175 30.399 79.3333 30.9628 79.2404 31.4891C79.1453 32.0065 79.1783 32.6206 79.3395 33.3315ZM75.3578 38.6421C75.1923 37.9988 75.3202 37.3974 75.7414 36.8379C76.1604 36.2694 76.7942 35.8809 77.6428 35.6723C78.4913 35.4637 79.2378 35.5129 79.8821 35.8201C80.5241 36.1182 80.9279 36.589 81.0934 37.2323C81.2589 37.8755 81.1322 38.4814 80.7133 39.0499C80.292 39.6094 79.6571 39.9935 78.8085 40.2021C77.9599 40.4107 77.2146 40.3659 76.5726 40.0677C75.9283 39.7606 75.5234 39.2854 75.3578 38.6421Z" fill="#8A1616"/>
</g>
<g filter="url(#filter2_d_3624_441)">
<path d="M49.9706 57.0524L51.6074 53.2575C50.748 53.0019 49.9684 52.8296 49.2685 52.7408C48.5551 52.6579 47.8758 52.6747 47.2306 52.7911C46.5854 52.9075 45.9375 53.1325 45.2868 53.4661C44.7272 53.7671 44.2071 54.0152 43.7262 54.2104C43.2454 54.4055 42.7902 54.5287 42.3604 54.5799C41.9307 54.6311 41.5107 54.5957 41.1006 54.4737C40.5928 54.3227 40.2063 54.1331 39.9411 53.905C39.672 53.6858 39.5145 53.4251 39.4686 53.123C39.409 52.8268 39.461 52.4892 39.6244 52.1101C39.7575 51.8016 39.966 51.5354 40.2498 51.3115C40.5299 51.0964 40.8818 50.9574 41.3056 50.8945C41.7196 50.8287 42.2136 50.8712 42.7876 51.022L44.7209 46.5395C43.2545 46.1332 41.9474 46.0726 40.7998 46.3578C39.6385 46.649 38.6464 47.1993 37.8235 48.0088C36.9871 48.8242 36.3179 49.8137 35.816 50.9773C35.261 52.2643 35.0035 53.436 35.0438 54.4923C35.084 55.5486 35.4322 56.4528 36.0884 57.2049C36.7348 57.9542 37.6879 58.5162 38.9476 58.8908C39.7874 59.1406 40.5825 59.213 41.3329 59.108C42.0698 59.0089 42.8113 58.7968 43.5575 58.4718C44.2902 58.1526 45.0866 57.7877 45.9467 57.3772C46.6653 57.0141 47.3232 56.8169 47.9206 56.7857C48.5082 56.7517 49.1916 56.8405 49.9706 57.0524ZM56.2941 54.0398C55.591 53.8307 54.9062 53.8856 54.2398 54.2046C53.5636 54.5206 53.0677 55.0445 52.7522 55.7761C52.4366 56.5078 52.4192 57.174 52.7 57.7747C52.9711 58.3725 53.4581 58.776 54.1612 58.9851C54.8643 59.1942 55.5539 59.1408 56.2301 58.8247C56.8966 58.5057 57.3876 57.9804 57.7031 57.2488C58.0187 56.5171 58.0409 55.8524 57.7699 55.2546C57.4891 54.6539 56.9972 54.2489 56.2941 54.0398Z" fill="#DB0505"/>
</g>
<path d="M60.3818 42.7194C61.564 41.7859 62.888 41.2712 64.3364 41.2742L64.6034 41.2782C65.9253 41.3284 67.0635 41.8091 67.9559 42.707C68.9071 43.6643 69.2992 44.8143 69.1315 46.0895L69.131 46.0986C68.9486 47.3714 68.2099 48.4753 67.0289 49.4078C65.8479 50.3404 64.5296 50.8612 63.0901 50.869L63.0806 50.8691L63.08 50.8684C61.6398 50.863 60.4062 50.3773 59.4549 49.4202C58.503 48.4625 58.1139 47.3142 58.2956 46.0446C58.4668 44.7624 59.1997 43.653 60.3818 42.7194ZM42.4141 24.0956C44.3212 22.5896 46.2454 21.5127 48.1891 20.9017C50.145 20.2868 52.065 20.1791 53.9213 20.618L54.2677 20.7061C55.9889 21.1759 57.5356 22.131 58.9106 23.5146C59.9082 24.5185 60.5808 25.6073 60.8855 26.7794L60.887 26.7795C61.1772 27.8692 61.2577 29.0243 61.1388 30.2384C61.0285 31.3645 60.8779 32.5967 60.6884 33.9334L60.687 33.9431L60.6856 33.9541C60.5089 34.9897 60.5714 35.7886 60.8019 36.3905L60.8037 36.3965C61.0389 37.0244 61.511 37.7423 62.2726 38.5512L62.8748 39.1916L56.039 44.5898L55.4004 43.9472C54.4393 42.9801 53.6547 42.0511 53.058 41.1603L53.052 41.1501C52.445 40.218 52.0333 39.2555 51.8304 38.2644C51.6273 37.2718 51.6313 36.2221 51.827 35.1229L51.831 35.1049C52.0054 34.2472 52.1132 33.4785 52.1579 32.7975C52.2008 32.1445 52.1449 31.5878 52.0097 31.1171C51.8833 30.6776 51.6528 30.2895 51.3096 29.9442C50.8178 29.4493 50.3863 29.1693 50.0254 29.0337L50.0026 29.0246C49.665 28.8883 49.3537 28.8648 49.0357 28.9351L49.0179 28.9392L48.9987 28.9433C48.6733 29.0029 48.2802 29.1749 47.8218 29.5369C47.4963 29.794 47.2579 30.0975 47.1015 30.4563L47.103 30.4564C46.9765 30.7629 46.9464 31.1208 47.0542 31.5566L47.0572 31.5665C47.1455 31.9451 47.4061 32.4199 47.9358 32.9936L48.5257 33.6326L40.6976 39.8144L40.0606 39.1459C38.4314 37.4346 37.4549 35.6578 37.2388 33.8217L37.2388 33.8204C37.0307 32.0098 37.4163 30.2682 38.3781 28.6148L38.5597 28.3097C39.4928 26.7873 40.7833 25.3834 42.4141 24.0956Z" stroke="white" stroke-width="1.81447"/>
<path d="M76.2395 35.3928C77.206 35.1658 78.1071 35.2213 78.898 35.6075C79.6849 35.984 80.1901 36.5868 80.3839 37.3841C80.5776 38.1812 80.4057 38.9456 79.8828 39.6379L79.8797 39.6424C79.3488 40.3307 78.5685 40.7752 77.6028 41.0021C76.6369 41.229 75.7357 41.1794 74.9456 40.8013L74.9407 40.7986C74.1559 40.4134 73.6511 39.808 73.4574 39.011C73.2637 38.2136 73.4362 37.4517 73.9649 36.7662C74.4929 36.0697 75.2726 35.6199 76.2395 35.3928ZM72.7274 19.8733C74.2801 19.5086 75.6976 19.3965 76.9684 19.5594C78.2487 19.7236 79.3343 20.1723 80.198 20.9179L80.197 20.9181C81.0633 21.6586 81.6336 22.6653 81.934 23.9012C82.1383 24.7418 82.1375 25.5454 81.9086 26.3001L81.9098 26.3008C81.7003 27.0055 81.3541 27.6934 80.8787 28.3631C80.4379 28.9841 79.9394 29.6556 79.3841 30.3773L79.3743 30.3891C78.9287 30.9393 78.6921 31.4184 78.6138 31.8304L78.6127 31.8344C78.5282 32.2626 78.5433 32.8054 78.686 33.4766L78.7971 33.9985L73.2247 35.3073L73.0954 34.7754C72.898 33.963 72.7837 33.2199 72.7592 32.5489L72.7587 32.5424C72.7425 31.8455 72.8439 31.1821 73.0676 30.5574C73.2918 29.9317 73.6479 29.3268 74.1265 28.7435L74.1347 28.734L74.4107 28.4037C74.6747 28.0796 74.9022 27.775 75.0932 27.4889C75.3373 27.1232 75.4961 26.7862 75.5818 26.4769C75.6622 26.187 75.667 25.8976 75.5954 25.6031C75.4937 25.1845 75.3514 24.9046 75.1978 24.7279L75.1887 24.7167C75.048 24.5455 74.8849 24.4503 74.6911 24.4073L74.6791 24.4054L74.6678 24.4023C74.4734 24.3513 74.2048 24.3464 73.8356 24.4332C73.5739 24.4946 73.3434 24.6055 73.138 24.7711C72.9691 24.9126 72.833 25.1109 72.7444 25.3916L72.7427 25.3977C72.6618 25.6431 72.6446 25.9903 72.7404 26.4649L72.8442 26.9828L66.4645 28.4812L66.3453 27.9345C66.0355 26.5184 66.103 25.2378 66.6045 24.123L66.6052 24.1219C67.0721 23.0908 67.8039 22.2307 68.7901 21.5488L68.9909 21.415C70.0629 20.7171 71.3119 20.2058 72.7274 19.8733Z" stroke="white" stroke-width="1.15453"/>
<path d="M52.5759 54.5055C52.2284 55.3399 52.2029 56.1437 52.558 56.882C52.9025 57.6158 53.5273 58.1219 54.3999 58.371C55.2721 58.62 56.1433 58.5419 56.9681 58.1458L56.9734 58.1435C57.7944 57.7398 58.3671 57.0916 58.7145 56.2579C59.0619 55.4241 59.0939 54.6208 58.7479 53.884L58.7454 53.8794C58.391 53.1467 57.7632 52.6406 56.8909 52.3916C56.0183 52.1425 55.1498 52.2214 54.3321 52.6234C53.5022 53.0236 52.9236 53.6708 52.5759 54.5055ZM35.567 49.8871C35.0086 51.2275 34.7456 52.4726 34.8044 53.6144C34.8637 54.7648 35.2599 55.7703 36.0096 56.608L36.01 56.6071C36.7537 57.4466 37.8237 58.0496 39.1762 58.4358C40.0962 58.6984 40.9947 58.7757 41.8606 58.6461L41.8612 58.6472C42.6693 58.53 43.472 58.2901 44.2668 57.9338C45.0039 57.6035 45.803 57.227 46.6637 56.805L46.6778 56.7975C47.3362 56.456 47.8947 56.2929 48.3629 56.2635L48.3675 56.2629C48.8544 56.2296 49.4598 56.2957 50.1963 56.4872L50.769 56.6363L52.773 51.8258L52.1909 51.6597C51.3018 51.4059 50.4822 51.2325 49.7345 51.1457L49.7272 51.1446C48.9497 51.0626 48.1982 51.088 47.4781 51.2256C46.7569 51.3635 46.0461 51.6203 45.3475 51.9878L45.3361 51.9941L44.94 52.2066C44.5521 52.4091 44.1895 52.5811 43.8511 52.7226C43.4186 52.9034 43.0264 53.0114 42.6723 53.0573C42.3405 53.1003 42.0165 53.0766 41.6941 52.9845C41.2361 52.8537 40.937 52.7005 40.7543 52.5472L40.7427 52.5381C40.5649 52.3968 40.4743 52.2431 40.4451 52.0671L40.4441 52.0563L40.4418 52.046C40.4037 51.8689 40.4243 51.6303 40.557 51.3116C40.6512 51.0857 40.7975 50.8923 41.0026 50.7263C41.1772 50.5904 41.412 50.4891 41.7345 50.4378L41.7415 50.4369C42.0237 50.389 42.4134 50.4075 42.9347 50.5384L43.5037 50.6807L45.7981 45.1733L45.1985 45.0146C43.6454 44.6026 42.2072 44.5381 40.9122 44.8742L40.9109 44.8748C39.7129 45.1884 38.6803 45.7533 37.8222 46.561L37.6532 46.7259C36.769 47.608 36.0761 48.6651 35.567 49.8871Z" stroke="white" stroke-width="1.15453"/>
<path d="M79.0793 7.55871C78.3934 9.46808 75.6351 13.1868 70.0891 12.7867C63.1566 12.2867 59.1632 10.9941 53.4673 14.465" stroke="white" stroke-linecap="round"/>
<path d="M23.1135 40.7487C23.9361 40.0843 25.1285 40.1383 25.7818 40.7794C26.4347 41.4206 26.379 42.4818 25.5565 43.1461C24.734 43.8102 23.5429 43.7561 22.8896 43.1154C22.2364 42.4744 22.2911 41.4131 23.1135 40.7487Z" stroke="white"/>
<mask id="path-9-inside-1_3624_441" fill="white">
<ellipse cx="0.66045" cy="0.619201" rx="0.66045" ry="0.619201" transform="matrix(0.777948 -0.628328 0.713739 0.700412 84.3506 38.9935)"/>
</mask>
<path d="M85.8201 38.5973L85.0422 39.2256C84.8494 39.0364 84.9367 38.8246 85.0345 38.7455L85.7483 39.4459L86.462 40.1464C87.1274 39.6089 87.279 38.6372 86.5981 37.9689L85.8201 38.5973ZM85.7483 39.4459L85.0345 38.7455C85.1324 38.6665 85.3777 38.6097 85.5705 38.7989L84.7925 39.4272L84.0146 40.0556C84.6955 40.7238 85.7966 40.6838 86.462 40.1464L85.7483 39.4459ZM84.7925 39.4272L85.5705 38.7989C85.7632 38.9881 85.676 39.1999 85.5781 39.279L84.8644 38.5786L84.1506 37.8781C83.4853 38.4156 83.3337 39.3873 84.0146 40.0556L84.7925 39.4272ZM84.8644 38.5786L85.5781 39.279C85.4803 39.358 85.2349 39.4148 85.0422 39.2256L85.8201 38.5973L86.5981 37.9689C85.9171 37.3007 84.816 37.3407 84.1506 37.8781L84.8644 38.5786Z" fill="white" mask="url(#path-9-inside-1_3624_441)"/>
<g filter="url(#filter3_d_3624_441)">
<g opacity="0.8">
<path d="M79.0214 54.211L79.4654 50.4786L77.8891 48.9346L75.9455 50.4782L75.5304 53.9679L79.0214 54.211Z" fill="white"/>
<path d="M78.4969 58.6204L78.2512 60.6863L74.7312 60.686L75.0059 58.3772L78.4969 58.6204Z" fill="white"/>
<rect width="4.29365" height="0.673945" transform="matrix(-1.05403 -9.72658e-05 -0.111218 0.934955 78.7241 60.9384)" fill="white"/>
<rect width="3.33951" height="0.673945" transform="matrix(-1.05403 -9.72658e-05 -0.111218 0.934955 77.937 63.3327)" fill="white"/>
<path d="M76.8262 64.2148L75.3176 64.2146L75.0449 66.5071C75.001 66.8766 75.303 67.1762 75.7196 67.1762C76.1362 67.1762 76.5095 66.8767 76.5535 66.5072L76.8262 64.2148Z" fill="white"/>
<rect width="7.83762" height="1.34789" rx="0.673945" transform="matrix(-1.05403 -9.72658e-05 -0.111218 0.934955 80.4871 61.8206)" fill="white"/>
</g>
<path d="M70.1013 57.3435L81.5871 58.2407L82.262 55.1651L70.7762 54.2679L68.7017 55.67L70.1013 57.3435Z" fill="white"/>
<rect width="4.29365" height="0.673945" transform="matrix(0.20209 -0.920969 1.05202 0.0821788 81.7744 58.7021)" fill="white"/>
<rect width="3.33951" height="0.673945" transform="matrix(0.20209 -0.920969 1.05202 0.0821788 84.5649 58.4732)" fill="white"/>
<path d="M85.7507 57.6721L86.04 56.354L88.6194 56.5555C89.0352 56.588 89.3075 56.9094 89.2277 57.2734C89.1478 57.6373 88.746 57.9061 88.3302 57.8736L85.7507 57.6721Z" fill="white"/>
<rect width="7.83762" height="1.34789" rx="0.673945" transform="matrix(0.20209 -0.920969 1.05202 0.0821788 82.4087 60.4115)" fill="white"/>
</g>
<defs>
<filter id="filter0_d_3624_441" x="0.533882" y="0.612843" width="108.379" height="106.791" filterUnits="userSpaceOnUse" color-interpolation-filters="sRGB">
<feFlood flood-opacity="0" result="BackgroundImageFix"/>
<feColorMatrix in="SourceAlpha" type="matrix" values="0 0 0 0 0 0 0 0 0 0 0 0 0 0 0 0 0 0 127 0" result="hardAlpha"/>
<feOffset dy="19.5303"/>
<feGaussianBlur stdDeviation="19.5303"/>
<feComposite in2="hardAlpha" operator="out"/>
<feColorMatrix type="matrix" values="0 0 0 0 0.305882 0 0 0 0 0.282353 0 0 0 0 0.282353 0 0 0 0.5 0"/>
<feBlend mode="normal" in2="BackgroundImageFix" result="effect1_dropShadow_3624_441"/>
<feBlend mode="normal" in="SourceGraphic" in2="effect1_dropShadow_3624_441" result="shape"/>
</filter>
<filter id="filter1_d_3624_441" x="43.0459" y="7.37308" width="64.4239" height="70.2385" filterUnits="userSpaceOnUse" color-interpolation-filters="sRGB">
<feFlood flood-opacity="0" result="BackgroundImageFix"/>
<feColorMatrix in="SourceAlpha" type="matrix" values="0 0 0 0 0 0 0 0 0 0 0 0 0 0 0 0 0 0 127 0" result="hardAlpha"/>
<feOffset dy="12.4269"/>
<feGaussianBlur stdDeviation="12.4269"/>
<feComposite in2="hardAlpha" operator="out"/>
<feColorMatrix type="matrix" values="0 0 0 0 0.305882 0 0 0 0 0.282353 0 0 0 0 0.282353 0 0 0 0.5 0"/>
<feBlend mode="normal" in2="BackgroundImageFix" result="effect1_dropShadow_3624_441"/>
<feBlend mode="normal" in="SourceGraphic" in2="effect1_dropShadow_3624_441" result="shape"/>
</filter>
<filter id="filter2_d_3624_441" x="10.186" y="33.7545" width="72.6255" height="62.6808" filterUnits="userSpaceOnUse" color-interpolation-filters="sRGB">
<feFlood flood-opacity="0" result="BackgroundImageFix"/>
<feColorMatrix in="SourceAlpha" type="matrix" values="0 0 0 0 0 0 0 0 0 0 0 0 0 0 0 0 0 0 127 0" result="hardAlpha"/>
<feOffset dy="12.4269"/>
<feGaussianBlur stdDeviation="12.4269"/>
<feComposite in2="hardAlpha" operator="out"/>
<feColorMatrix type="matrix" values="0 0 0 0 0.307692 0 0 0 0 0.28353 0 0 0 0 0.28353 0 0 0 0.5 0"/>
<feBlend mode="normal" in2="BackgroundImageFix" result="effect1_dropShadow_3624_441"/>
<feBlend mode="normal" in="SourceGraphic" in2="effect1_dropShadow_3624_441" result="shape"/>
</filter>
<filter id="filter3_d_3624_441" x="36.7017" y="32.9346" width="84.5398" height="82.2416" filterUnits="userSpaceOnUse" color-interpolation-filters="sRGB">
<feFlood flood-opacity="0" result="BackgroundImageFix"/>
<feColorMatrix in="SourceAlpha" type="matrix" values="0 0 0 0 0 0 0 0 0 0 0 0 0 0 0 0 0 0 127 0" result="hardAlpha"/>
<feOffset dy="16"/>
<feGaussianBlur stdDeviation="16"/>
<feComposite in2="hardAlpha" operator="out"/>
<feColorMatrix type="matrix" values="0 0 0 0 0.305882 0 0 0 0 0.282353 0 0 0 0 0.282353 0 0 0 0.5 0"/>
<feBlend mode="normal" in2="BackgroundImageFix" result="effect1_dropShadow_3624_441"/>
<feBlend mode="normal" in="SourceGraphic" in2="effect1_dropShadow_3624_441" result="shape"/>
</filter>
</defs>
</svg>
