<svg width="36" height="35" viewBox="0 0 36 35" fill="none" xmlns="http://www.w3.org/2000/svg">
<path d="M4.5 13.125L18 2.91669L31.5 13.125V29.1667C31.5 29.9402 31.1839 30.6821 30.6213 31.2291C30.0587 31.7761 29.2957 32.0834 28.5 32.0834H7.5C6.70435 32.0834 5.94129 31.7761 5.37868 31.2291C4.81607 30.6821 4.5 29.9402 4.5 29.1667V13.125Z" fill="#D54745"/>
<path d="M13.5 32.0834V17.5H22.5V32.0834" fill="#D54745"/>
<path d="M13.5 32.0834V17.5H22.5V32.0834M4.5 13.125L18 2.91669L31.5 13.125V29.1667C31.5 29.9402 31.1839 30.6821 30.6213 31.2291C30.0587 31.7761 29.2957 32.0834 28.5 32.0834H7.5C6.70435 32.0834 5.94129 31.7761 5.37868 31.2291C4.81607 30.6821 4.5 29.9402 4.5 29.1667V13.125Z" stroke="#F4F4F4" stroke-linecap="round" stroke-linejoin="round"/>
</svg>
