<svg width="31" height="31" viewBox="0 0 31 31" fill="none" xmlns="http://www.w3.org/2000/svg">
<rect width="31" height="31" rx="8" fill="#D54745"/>
<path d="M22.6668 23.5V21.8333C22.6668 20.9493 22.3156 20.1014 21.6905 19.4763C21.0654 18.8512 20.2176 18.5 19.3335 18.5H12.6668C11.7828 18.5 10.9349 18.8512 10.3098 19.4763C9.68469 20.1014 9.3335 20.9493 9.3335 21.8333V23.5M19.3335 11.8333C19.3335 13.6743 17.8411 15.1667 16.0002 15.1667C14.1592 15.1667 12.6668 13.6743 12.6668 11.8333C12.6668 9.99238 14.1592 8.5 16.0002 8.5C17.8411 8.5 19.3335 9.99238 19.3335 11.8333Z" stroke="#F5F5F5" stroke-width="2" stroke-linecap="round" stroke-linejoin="round"/>
</svg>
